<?xml version="1.0" encoding="UTF-8" standalone="no"?>
<!-- Created with Inkscape (http://www.inkscape.org/) -->

<svg
   xmlns:dc="http://purl.org/dc/elements/1.1/"
   xmlns:cc="http://creativecommons.org/ns#"
   xmlns:rdf="http://www.w3.org/1999/02/22-rdf-syntax-ns#"
   xmlns:svg="http://www.w3.org/2000/svg"
   xmlns="http://www.w3.org/2000/svg"
   version="1.1"
   width="383.0343"
   height="99.92112"
   id="svg3499">
  <defs
     id="defs3501">
    <clipPath
       id="clipPath3137">
      <path
         d="m 472.536,51.984 157.464,0 0,54.144 -157.464,0 0,-54.144 z"
         id="path3139" />
    </clipPath>
  </defs>
  <metadata
     id="metadata3504">
    <rdf:RDF>
      <cc:Work
         rdf:about="">
        <dc:format>image/svg+xml</dc:format>
        <dc:type
           rdf:resource="http://purl.org/dc/dcmitype/StillImage" />
        <dc:title></dc:title>
      </cc:Work>
    </rdf:RDF>
  </metadata>
  <g
     transform="translate(-22.054296,-919.97601)"
     id="layer1">
    <g
       transform="matrix(1.25,0,0,-1.25,270.76857,483.13649)"
       id="g3129" />
    <g
       transform="matrix(2.6150768,0,0,2.6150768,-683.02631,-340.04329)"
       id="g4373">
      <g
         transform="matrix(1.25,0,0,-1.25,-369.26368,604.56286)"
         id="g3133">
        <g
           clip-path="url(#clipPath3137)"
           id="g3135">
          <g
             transform="translate(570.45531,73.889008)"
             id="g3201" />
          <g
             id="g4418">
            <path
               d="m 0,0 0,-8.569 2.857,0 0,-14.248 5.714,-5.677 14.211,0 5.711,5.677 0,14.248 2.859,0 0,8.569 -14.249,0 0,-8.569 2.859,0 0,-11.355 -8.571,0 0,11.355 2.857,0 0,8.569 L 0,0 z"
               transform="translate(512.0258,97.141095)"
               id="path3131"
               style="fill:#cc0000;fill-opacity:1;fill-rule:nonzero;stroke:none" />
            <g
               transform="translate(549.3399,96.801498)"
               id="g3141"
               style="fill:#000000;fill-opacity:1">
              <path
                 d="m 0,0 -0.997,-0.027 c -0.388,-0.013 -0.548,-0.047 -0.649,-0.194 -0.067,-0.1 -0.1,-0.18 -0.113,-0.234 -0.014,-0.053 -0.034,-0.08 -0.074,-0.08 -0.047,0 -0.06,0.033 -0.06,0.107 0,0.107 0.127,0.716 0.14,0.769 0.02,0.087 0.04,0.127 0.081,0.127 0.053,0 0.12,-0.067 0.287,-0.08 0.194,-0.02 0.448,-0.034 0.669,-0.034 l 2.649,0 c 0.428,0 0.589,0.067 0.642,0.067 0.047,0 0.054,-0.04 0.054,-0.14 0,-0.14 -0.02,-0.602 -0.02,-0.776 -0.007,-0.067 -0.02,-0.107 -0.06,-0.107 -0.054,0 -0.067,0.034 -0.074,0.134 L 2.468,-0.395 C 2.455,-0.221 2.274,-0.033 1.679,-0.02 L 0.836,0 l 0,-2.743 c 0,-0.615 0,-1.143 0.034,-1.431 0.02,-0.187 0.06,-0.334 0.26,-0.361 0.094,-0.014 0.241,-0.027 0.341,-0.027 0.074,0 0.108,-0.02 0.108,-0.053 0,-0.047 -0.054,-0.067 -0.128,-0.067 -0.441,0 -0.863,0.02 -1.05,0.02 -0.154,0 -0.575,-0.02 -0.842,-0.02 -0.087,0 -0.134,0.02 -0.134,0.067 0,0.033 0.026,0.053 0.106,0.053 0.101,0 0.181,0.013 0.241,0.027 0.134,0.027 0.174,0.174 0.194,0.368 C 0,-3.886 0,-3.358 0,-2.743 L 0,0 z"
                 id="path3143"
                 style="fill:#000000;fill-opacity:1;fill-rule:nonzero;stroke:none" />
            </g>
            <g
               transform="translate(556.9653,95.048904)"
               id="g3145"
               style="fill:#000000;fill-opacity:1">
              <path
                 d="m 0,0 c 0.02,0 0.04,0.013 0.04,0.047 l 0,0.14 c 0,1.017 0,1.204 -0.013,1.418 C 0.013,1.833 -0.04,1.94 -0.261,1.987 -0.314,2 -0.428,2.007 -0.522,2.007 c -0.073,0 -0.113,0.013 -0.113,0.06 0,0.047 0.046,0.06 0.14,0.06 0.361,0 0.783,-0.02 0.963,-0.02 0.161,0 0.582,0.02 0.843,0.02 0.094,0 0.141,-0.013 0.141,-0.06 C 1.452,2.02 1.411,2.007 1.331,2.007 1.278,2.007 1.217,2 1.137,1.987 0.957,1.953 0.903,1.84 0.89,1.605 0.876,1.391 0.876,1.204 0.876,0.187 l 0,-1.177 c 0,-0.615 0,-1.144 0.034,-1.431 0.02,-0.188 0.06,-0.335 0.26,-0.362 0.094,-0.013 0.241,-0.026 0.342,-0.026 0.073,0 0.107,-0.02 0.107,-0.054 0,-0.047 -0.054,-0.067 -0.134,-0.067 -0.435,0 -0.856,0.02 -1.044,0.02 -0.153,0 -0.575,-0.02 -0.836,-0.02 -0.093,0 -0.14,0.02 -0.14,0.067 0,0.034 0.027,0.054 0.107,0.054 0.1,0 0.18,0.013 0.241,0.026 0.133,0.027 0.167,0.174 0.194,0.368 0.033,0.281 0.033,0.81 0.033,1.425 l 0,0.589 c 0,0.027 -0.02,0.04 -0.04,0.04 l -2.555,0 c -0.02,0 -0.04,-0.007 -0.04,-0.04 l 0,-0.589 c 0,-0.615 0,-1.144 0.033,-1.431 0.02,-0.188 0.06,-0.335 0.261,-0.362 0.094,-0.013 0.241,-0.026 0.341,-0.026 0.074,0 0.107,-0.02 0.107,-0.054 0,-0.047 -0.054,-0.067 -0.134,-0.067 -0.435,0 -0.856,0.02 -1.043,0.02 -0.154,0 -0.576,-0.02 -0.843,-0.02 -0.087,0 -0.134,0.02 -0.134,0.067 0,0.034 0.027,0.054 0.107,0.054 0.101,0 0.181,0.013 0.241,0.026 0.134,0.027 0.167,0.174 0.194,0.368 0.033,0.281 0.033,0.81 0.033,1.425 l 0,1.177 c 0,1.017 0,1.204 -0.013,1.418 C -3.458,1.833 -3.512,1.94 -3.732,1.987 -3.786,2 -3.9,2.007 -3.993,2.007 c -0.074,0 -0.114,0.013 -0.114,0.06 0,0.047 0.047,0.06 0.14,0.06 0.361,0 0.783,-0.02 0.964,-0.02 0.16,0 0.581,0.02 0.842,0.02 0.094,0 0.141,-0.013 0.141,-0.06 0,-0.047 -0.04,-0.06 -0.121,-0.06 C -2.194,2.007 -2.254,2 -2.335,1.987 -2.515,1.953 -2.569,1.84 -2.582,1.605 -2.595,1.391 -2.595,1.204 -2.595,0.187 l 0,-0.14 C -2.595,0.013 -2.575,0 -2.555,0 L 0,0 z"
                 id="path3147"
                 style="fill:#000000;fill-opacity:1;fill-rule:nonzero;stroke:none" />
            </g>
            <g
               transform="translate(560.3699,95.236206)"
               id="g3149"
               style="fill:#000000;fill-opacity:1">
              <path
                 d="M 0,0 C 0,1.017 0,1.204 -0.013,1.418 -0.027,1.646 -0.08,1.753 -0.301,1.8 c -0.053,0.013 -0.167,0.02 -0.261,0.02 -0.073,0 -0.113,0.013 -0.113,0.06 0,0.046 0.046,0.06 0.147,0.06 0.354,0 0.776,-0.02 0.963,-0.02 0.214,0 1.545,0 1.672,0.006 0.127,0.014 0.234,0.027 0.288,0.041 0.033,0.006 0.073,0.026 0.107,0.026 0.033,0 0.04,-0.026 0.04,-0.06 C 2.542,1.887 2.509,1.806 2.489,1.498 2.482,1.432 2.468,1.137 2.455,1.057 2.448,1.024 2.435,0.983 2.388,0.983 c -0.047,0 -0.06,0.034 -0.06,0.094 0,0.047 -0.007,0.16 -0.04,0.241 C 2.241,1.438 2.174,1.519 1.84,1.559 1.726,1.572 1.024,1.585 0.89,1.585 0.856,1.585 0.843,1.565 0.843,1.519 l 0,-1.693 c 0,-0.047 0.007,-0.074 0.047,-0.074 0.147,0 0.916,0 1.07,0.014 0.16,0.013 0.261,0.033 0.321,0.1 0.047,0.054 0.074,0.087 0.107,0.087 0.027,0 0.047,-0.013 0.047,-0.053 0,-0.04 -0.033,-0.148 -0.054,-0.488 -0.013,-0.134 -0.026,-0.402 -0.026,-0.449 0,-0.053 0,-0.127 -0.061,-0.127 -0.046,0 -0.06,0.027 -0.06,0.06 -0.006,0.067 -0.006,0.154 -0.027,0.241 -0.033,0.134 -0.127,0.234 -0.374,0.261 -0.127,0.014 -0.789,0.02 -0.95,0.02 -0.033,0 -0.04,-0.027 -0.04,-0.067 l 0,-0.528 c 0,-0.228 -0.007,-0.843 0,-1.037 0.013,-0.462 0.12,-0.562 0.803,-0.562 0.174,0 0.454,0 0.628,0.08 0.174,0.081 0.255,0.221 0.302,0.495 0.013,0.074 0.026,0.101 0.073,0.101 0.054,0 0.054,-0.054 0.054,-0.121 0,-0.154 -0.054,-0.608 -0.087,-0.742 -0.047,-0.174 -0.107,-0.174 -0.362,-0.174 -1.01,0 -1.458,0.04 -1.853,0.04 -0.153,0 -0.575,-0.02 -0.842,-0.02 -0.087,0 -0.134,0.02 -0.134,0.067 0,0.033 0.027,0.053 0.107,0.053 0.1,0 0.18,0.014 0.241,0.027 0.133,0.027 0.167,0.174 0.194,0.368 C 0,-2.321 0,-1.793 0,-1.177 L 0,0 z"
                 id="path3151"
                 style="fill:#000000;fill-opacity:1;fill-rule:nonzero;stroke:none" />
            </g>
            <g
               transform="translate(548.6908,85.595001)"
               id="g3153"
               style="fill:#000000;fill-opacity:1">
              <path
                 d="m 0,0 c 0,1.739 0,2.051 -0.022,2.408 -0.022,0.379 -0.112,0.558 -0.48,0.635 -0.089,0.023 -0.278,0.034 -0.379,0.034 -0.044,0 -0.089,0.022 -0.089,0.067 0,0.067 0.056,0.089 0.178,0.089 0.502,0 1.182,-0.034 1.283,-0.034 0.1,0 0.769,0.034 1.103,0.034 0.123,0 0.179,-0.022 0.179,-0.089 C 1.773,3.099 1.728,3.077 1.683,3.077 1.606,3.077 1.539,3.066 1.405,3.043 1.104,2.999 1.015,2.798 0.992,2.408 0.97,2.051 0.97,1.739 0.97,0 l 0,-1.561 c 0,-1.605 0.357,-2.296 0.836,-2.754 0.546,-0.512 1.048,-0.613 1.684,-0.613 0.68,0 1.349,0.323 1.75,0.803 0.513,0.635 0.647,1.583 0.647,2.731 l 0,1.394 c 0,1.739 0,2.051 -0.023,2.408 C 5.842,2.787 5.753,2.966 5.385,3.043 5.296,3.066 5.106,3.077 5.006,3.077 c -0.045,0 -0.089,0.022 -0.089,0.067 0,0.067 0.055,0.089 0.178,0.089 0.502,0 1.115,-0.034 1.182,-0.034 0.078,0 0.602,0.034 0.936,0.034 0.123,0 0.179,-0.022 0.179,-0.089 0,-0.045 -0.045,-0.067 -0.09,-0.067 -0.077,0 -0.144,0 -0.278,-0.034 C 6.723,2.988 6.634,2.798 6.611,2.408 6.589,2.051 6.589,1.739 6.589,0 l 0,-1.193 C 6.589,-2.397 6.455,-3.735 5.563,-4.527 4.76,-5.24 3.924,-5.351 3.267,-5.351 2.888,-5.351 1.762,-5.307 0.97,-4.56 0.424,-4.036 0,-3.255 0,-1.628 L 0,0 z"
                 id="path3155"
                 style="fill:#000000;fill-opacity:1;fill-rule:nonzero;stroke:none" />
            </g>
            <g
               transform="translate(559.4492,81.915894)"
               id="g3157"
               style="fill:#000000;fill-opacity:1">
              <path
                 d="m 0,0 c 0.022,-0.914 0.134,-1.204 0.435,-1.293 0.211,-0.056 0.457,-0.067 0.557,-0.067 0.056,0 0.089,-0.022 0.089,-0.067 0,-0.067 -0.066,-0.089 -0.2,-0.089 -0.636,0 -1.082,0.033 -1.182,0.033 -0.1,0 -0.569,-0.033 -1.07,-0.033 -0.112,0 -0.179,0.011 -0.179,0.089 0,0.045 0.034,0.067 0.089,0.067 0.09,0 0.29,0.011 0.458,0.067 0.278,0.078 0.334,0.401 0.334,1.416 l 0.011,6.388 c 0,0.435 0.034,0.557 0.123,0.557 0.089,0 0.279,-0.245 0.39,-0.357 C 0.022,6.522 1.683,4.727 3.4,2.888 4.504,1.706 5.719,0.346 6.076,-0.022 L 5.953,5.641 C 5.942,6.366 5.864,6.611 5.519,6.7 5.318,6.745 5.062,6.756 4.972,6.756 c -0.078,0 -0.089,0.033 -0.089,0.078 0,0.067 0.089,0.078 0.223,0.078 0.502,0 1.037,-0.033 1.159,-0.033 0.123,0 0.491,0.033 0.948,0.033 0.123,0 0.201,-0.011 0.201,-0.078 0,-0.045 -0.045,-0.078 -0.123,-0.078 -0.056,0 -0.133,0 -0.267,-0.033 C 6.656,6.645 6.611,6.399 6.611,5.73 L 6.589,-0.803 c 0,-0.736 -0.022,-0.791 -0.1,-0.791 -0.09,0 -0.224,0.122 -0.814,0.713 C 5.552,-0.769 3.947,0.87 2.765,2.14 1.472,3.534 0.212,4.939 -0.145,5.34 L 0,0 z"
                 id="path3159"
                 style="fill:#000000;fill-opacity:1;fill-rule:nonzero;stroke:none" />
            </g>
            <g
               transform="translate(571.1996,83.632599)"
               id="g3161"
               style="fill:#000000;fill-opacity:1">
              <path
                 d="m 0,0 c 0,-1.07 0,-1.951 0.056,-2.419 0.033,-0.323 0.1,-0.569 0.435,-0.613 0.156,-0.023 0.401,-0.045 0.501,-0.045 0.067,0 0.089,-0.033 0.089,-0.067 0,-0.056 -0.055,-0.089 -0.178,-0.089 -0.613,0 -1.315,0.033 -1.371,0.033 -0.056,0 -0.758,-0.033 -1.093,-0.033 -0.122,0 -0.178,0.022 -0.178,0.089 0,0.034 0.022,0.067 0.089,0.067 0.101,0 0.234,0.022 0.334,0.045 0.224,0.044 0.279,0.29 0.324,0.613 0.056,0.468 0.056,1.349 0.056,2.419 l 0,1.962 c 0,1.74 0,2.052 -0.023,2.408 -0.022,0.379 -0.133,0.569 -0.379,0.625 -0.122,0.033 -0.267,0.044 -0.345,0.044 -0.045,0 -0.09,0.023 -0.09,0.067 0,0.067 0.056,0.09 0.179,0.09 0.368,0 1.07,-0.034 1.126,-0.034 0.056,0 0.758,0.034 1.092,0.034 0.123,0 0.179,-0.023 0.179,-0.09 C 0.803,5.062 0.758,5.039 0.714,5.039 0.636,5.039 0.568,5.028 0.435,5.006 0.134,4.95 0.045,4.761 0.022,4.37 0,4.014 0,3.702 0,1.962 L 0,0 z"
                 id="path3163"
                 style="fill:#000000;fill-opacity:1;fill-rule:nonzero;stroke:none" />
            </g>
            <g
               transform="translate(578.1451,81.759796)"
               id="g3165"
               style="fill:#000000;fill-opacity:1">
              <path
                 d="m 0,0 c 0.647,1.494 2.141,5.385 2.386,6.188 0.056,0.167 0.1,0.323 0.1,0.423 0,0.089 -0.034,0.201 -0.145,0.257 -0.134,0.044 -0.301,0.044 -0.424,0.044 -0.066,0 -0.122,0.011 -0.122,0.067 0,0.067 0.067,0.089 0.245,0.089 0.446,0 0.959,-0.033 1.093,-0.033 0.067,0 0.546,0.033 0.87,0.033 0.122,0 0.189,-0.022 0.189,-0.078 0,-0.056 -0.044,-0.078 -0.134,-0.078 -0.077,0 -0.323,0 -0.535,-0.134 C 3.378,6.678 3.211,6.489 2.909,5.73 2.787,5.418 2.229,4.081 1.661,2.709 0.981,1.081 0.48,-0.123 0.223,-0.669 c -0.312,-0.669 -0.356,-0.847 -0.468,-0.847 -0.134,0 -0.19,0.156 -0.401,0.691 l -2.732,6.834 c -0.245,0.625 -0.412,0.747 -0.803,0.859 -0.167,0.044 -0.357,0.044 -0.423,0.044 -0.067,0 -0.09,0.034 -0.09,0.078 0,0.067 0.112,0.078 0.29,0.078 0.535,0 1.171,-0.033 1.305,-0.033 0.111,0 0.613,0.033 1.036,0.033 0.201,0 0.301,-0.022 0.301,-0.078 0,-0.056 -0.033,-0.078 -0.111,-0.078 -0.123,0 -0.324,-0.011 -0.424,-0.056 -0.122,-0.055 -0.145,-0.144 -0.145,-0.222 0,-0.145 0.134,-0.491 0.301,-0.926 L 0,0 z"
                 id="path3167"
                 style="fill:#000000;fill-opacity:1;fill-rule:nonzero;stroke:none" />
            </g>
            <g
               transform="translate(584.5554,85.595001)"
               id="g3169"
               style="fill:#000000;fill-opacity:1">
              <path
                 d="m 0,0 c 0,1.739 0,2.051 -0.022,2.408 -0.022,0.379 -0.112,0.558 -0.479,0.635 -0.09,0.023 -0.279,0.034 -0.38,0.034 -0.045,0 -0.089,0.022 -0.089,0.067 0,0.067 0.056,0.089 0.178,0.089 0.502,0 1.205,-0.034 1.261,-0.034 0.078,0 2.296,0 2.552,0.012 0.212,0.011 0.391,0.033 0.48,0.055 0.056,0.012 0.1,0.056 0.156,0.056 0.034,0 0.044,-0.044 0.044,-0.1 C 3.701,3.144 3.645,3.01 3.613,2.698 3.601,2.586 3.579,2.096 3.557,1.962 3.545,1.906 3.523,1.839 3.479,1.839 c -0.067,0 -0.09,0.056 -0.09,0.145 0,0.078 -0.011,0.268 -0.067,0.402 C 3.244,2.564 3.132,2.698 2.531,2.765 2.341,2.787 1.126,2.798 1.004,2.798 0.959,2.798 0.936,2.765 0.936,2.687 l 0,-3.077 c 0,-0.078 0.012,-0.112 0.068,-0.112 0.145,0 1.515,0 1.772,0.022 0.268,0.023 0.424,0.045 0.524,0.157 0.078,0.089 0.123,0.145 0.167,0.145 0.034,0 0.056,-0.023 0.056,-0.09 0,-0.067 -0.056,-0.256 -0.089,-0.624 -0.022,-0.223 -0.045,-0.636 -0.045,-0.714 0,-0.089 0,-0.211 -0.078,-0.211 -0.055,0 -0.078,0.044 -0.078,0.1 0,0.111 0,0.223 -0.045,0.368 -0.044,0.156 -0.144,0.345 -0.579,0.39 -0.301,0.033 -1.405,0.056 -1.594,0.056 -0.056,0 -0.079,-0.034 -0.079,-0.078 l 0,-0.981 c 0,-0.379 -0.01,-1.673 0,-1.907 0.034,-0.769 0.201,-0.914 1.294,-0.914 0.289,0 0.78,0 1.07,0.123 0.29,0.122 0.424,0.345 0.502,0.803 0.022,0.122 0.044,0.167 0.1,0.167 0.067,0 0.067,-0.089 0.067,-0.167 0,-0.09 -0.089,-0.848 -0.145,-1.082 -0.078,-0.29 -0.167,-0.29 -0.602,-0.29 -1.683,0 -2.43,0.067 -2.753,0.067 -0.022,0 -0.212,-0.011 -0.447,-0.011 -0.223,-0.011 -0.479,-0.022 -0.646,-0.022 -0.123,0 -0.179,0.022 -0.179,0.089 0,0.033 0.023,0.067 0.089,0.067 0.101,0 0.235,0.022 0.335,0.044 0.223,0.045 0.279,0.29 0.323,0.613 C 0,-3.913 0,-3.033 0,-1.962 L 0,0 z"
                 id="path3171"
                 style="fill:#000000;fill-opacity:1;fill-rule:nonzero;stroke:none" />
            </g>
            <g
               transform="translate(592.80521,84.625107)"
               id="g3173"
               style="fill:#000000;fill-opacity:1">
              <path
                 d="m 0,0 c 0,-0.056 0.023,-0.1 0.078,-0.134 0.167,-0.1 0.68,-0.178 1.171,-0.178 0.267,0 0.579,0.033 0.836,0.212 0.39,0.267 0.68,0.869 0.68,1.716 0,1.394 -0.736,2.23 -1.928,2.23 C 0.502,3.846 0.201,3.813 0.089,3.779 0.033,3.757 0,3.712 0,3.645 L 0,0 z m -0.892,0.97 c 0,1.739 0,2.051 -0.022,2.408 -0.023,0.379 -0.112,0.558 -0.48,0.635 -0.089,0.023 -0.278,0.034 -0.379,0.034 -0.044,0 -0.089,0.022 -0.089,0.067 0,0.067 0.056,0.089 0.179,0.089 0.501,0 1.203,-0.034 1.259,-0.034 0.123,0 0.97,0.034 1.316,0.034 0.702,0 1.449,-0.067 2.04,-0.491 0.279,-0.2 0.77,-0.747 0.77,-1.516 0,-0.825 -0.347,-1.65 -1.349,-2.575 0.914,-1.171 1.672,-2.163 2.319,-2.854 0.601,-0.636 1.081,-0.758 1.36,-0.803 0.211,-0.034 0.367,-0.034 0.435,-0.034 0.055,0 0.1,-0.033 0.1,-0.066 0,-0.067 -0.068,-0.089 -0.268,-0.089 l -0.792,0 c -0.624,0 -0.903,0.055 -1.192,0.211 -0.479,0.257 -0.87,0.803 -1.505,1.639 -0.469,0.614 -0.993,1.36 -1.216,1.65 C 1.55,-0.68 1.516,-0.658 1.45,-0.658 L 0.078,-0.636 C 0.023,-0.636 0,-0.669 0,-0.725 L 0,-0.992 C 0,-2.063 0,-2.943 0.056,-3.412 0.089,-3.735 0.157,-3.98 0.49,-4.025 0.647,-4.047 0.892,-4.07 0.993,-4.07 c 0.066,0 0.088,-0.033 0.088,-0.066 0,-0.056 -0.055,-0.089 -0.178,-0.089 -0.613,0 -1.315,0.033 -1.371,0.033 -0.012,0 -0.714,-0.033 -1.048,-0.033 -0.123,0 -0.179,0.022 -0.179,0.089 0,0.033 0.023,0.066 0.09,0.066 0.1,0 0.234,0.023 0.334,0.045 0.223,0.045 0.279,0.29 0.323,0.613 0.056,0.469 0.056,1.349 0.056,2.42 l 0,1.962 z"
                 id="path3175"
                 style="fill:#000000;fill-opacity:1;fill-rule:nonzero;stroke:none" />
            </g>
            <g
               transform="translate(600.0547,80.544495)"
               id="g3177"
               style="fill:#000000;fill-opacity:1">
              <path
                 d="m 0,0 c -0.157,0.078 -0.168,0.123 -0.168,0.424 0,0.557 0.045,1.003 0.056,1.182 0.011,0.122 0.034,0.178 0.09,0.178 0.066,0 0.078,-0.034 0.078,-0.123 0,-0.1 0,-0.256 0.032,-0.412 0.168,-0.825 0.904,-1.137 1.651,-1.137 1.07,0 1.594,0.769 1.594,1.482 0,0.77 -0.323,1.216 -1.282,2.007 L 1.55,4.014 C 0.368,4.984 0.1,5.675 0.1,6.433 0.1,7.626 0.992,8.44 2.408,8.44 2.843,8.44 3.166,8.395 3.445,8.328 3.657,8.284 3.745,8.272 3.835,8.272 3.924,8.272 3.946,8.25 3.946,8.195 3.946,8.139 3.902,7.771 3.902,7.013 3.902,6.834 3.879,6.756 3.824,6.756 3.757,6.756 3.745,6.812 3.735,6.901 3.723,7.035 3.657,7.336 3.589,7.459 3.523,7.581 3.222,8.049 2.196,8.049 1.427,8.049 0.825,7.57 0.825,6.756 0.825,6.121 1.137,5.742 2.185,4.883 L 2.497,4.638 C 3.813,3.601 4.124,2.91 4.124,2.018 4.124,1.561 3.946,0.714 3.177,0.167 2.697,-0.167 2.096,-0.301 1.494,-0.301 0.97,-0.301 0.457,-0.223 0,0"
                 id="path3179"
                 style="fill:#000000;fill-opacity:1;fill-rule:nonzero;stroke:none" />
            </g>
            <g
               transform="translate(608.6165,83.632599)"
               id="g3181"
               style="fill:#000000;fill-opacity:1">
              <path
                 d="m 0,0 c 0,-1.07 0,-1.951 0.056,-2.419 0.033,-0.323 0.1,-0.569 0.434,-0.613 0.157,-0.023 0.402,-0.045 0.503,-0.045 0.066,0 0.089,-0.033 0.089,-0.067 0,-0.056 -0.056,-0.089 -0.179,-0.089 -0.613,0 -1.315,0.033 -1.371,0.033 -0.056,0 -0.759,-0.033 -1.093,-0.033 -0.122,0 -0.178,0.022 -0.178,0.089 0,0.034 0.022,0.067 0.089,0.067 0.1,0 0.234,0.022 0.334,0.045 0.223,0.044 0.279,0.29 0.323,0.613 0.056,0.468 0.056,1.349 0.056,2.419 l 0,1.962 c 0,1.74 0,2.052 -0.022,2.408 -0.022,0.379 -0.134,0.569 -0.379,0.625 -0.123,0.033 -0.267,0.044 -0.345,0.044 -0.045,0 -0.09,0.023 -0.09,0.067 0,0.067 0.056,0.09 0.179,0.09 0.367,0 1.07,-0.034 1.126,-0.034 0.056,0 0.758,0.034 1.093,0.034 0.122,0 0.178,-0.023 0.178,-0.09 C 0.803,5.062 0.759,5.039 0.713,5.039 0.636,5.039 0.569,5.028 0.435,5.006 0.134,4.95 0.045,4.761 0.023,4.37 0,4.014 0,3.702 0,1.962 L 0,0 z"
                 id="path3183"
                 style="fill:#000000;fill-opacity:1;fill-rule:nonzero;stroke:none" />
            </g>
            <g
               transform="translate(615.5175,83.632599)"
               id="g3185"
               style="fill:#000000;fill-opacity:1">
              <path
                 d="m 0,0 c 0,-1.07 0,-1.951 0.056,-2.419 0.032,-0.323 0.1,-0.569 0.435,-0.613 0.156,-0.023 0.401,-0.045 0.501,-0.045 0.067,0 0.09,-0.033 0.09,-0.067 0,-0.056 -0.056,-0.089 -0.179,-0.089 -0.613,0 -1.316,0.033 -1.372,0.033 -0.056,0 -0.758,-0.033 -1.092,-0.033 -0.123,0 -0.178,0.022 -0.178,0.089 0,0.034 0.022,0.067 0.089,0.067 0.1,0 0.234,0.022 0.334,0.045 0.223,0.044 0.279,0.29 0.323,0.613 0.056,0.468 0.056,1.349 0.056,2.419 l 0,4.716 -1.65,-0.022 C -3.278,4.683 -3.545,4.605 -3.724,4.337 -3.846,4.148 -3.88,4.07 -3.914,3.991 -3.947,3.902 -3.98,3.88 -4.025,3.88 c -0.033,0 -0.056,0.033 -0.056,0.1 0,0.112 0.223,1.071 0.245,1.16 0.023,0.067 0.067,0.211 0.112,0.211 0.078,0 0.189,-0.111 0.491,-0.133 0.323,-0.034 0.747,-0.056 0.881,-0.056 l 4.18,0 c 0.357,0 0.613,0.034 0.792,0.056 0.167,0.033 0.267,0.055 0.312,0.055 0.055,0 0.055,-0.066 0.055,-0.133 0,-0.335 -0.033,-1.104 -0.033,-1.227 0,-0.1 -0.033,-0.145 -0.078,-0.145 -0.055,0 -0.078,0.034 -0.089,0.19 L 2.776,4.081 C 2.731,4.415 2.475,4.672 1.405,4.694 L 0,4.716 0,0 z"
                 id="path3187"
                 style="fill:#000000;fill-opacity:1;fill-rule:nonzero;stroke:none" />
            </g>
            <g
               transform="translate(622.88651,83.287003)"
               id="g3189"
               style="fill:#000000;fill-opacity:1">
              <path
                 d="m 0,0 c 0,0.602 -0.112,0.847 -0.257,1.171 -0.078,0.178 -1.572,2.631 -1.961,3.21 -0.28,0.413 -0.559,0.692 -0.759,0.826 -0.167,0.111 -0.379,0.178 -0.48,0.178 -0.056,0 -0.111,0.022 -0.111,0.078 0,0.045 0.045,0.078 0.145,0.078 0.211,0 1.048,-0.033 1.104,-0.033 0.077,0 0.502,0.033 0.936,0.033 0.123,0 0.145,-0.033 0.145,-0.078 0,-0.045 -0.067,-0.056 -0.167,-0.1 C -1.494,5.318 -1.55,5.251 -1.55,5.162 c 0,-0.134 0.056,-0.268 0.145,-0.435 0.178,-0.323 1.85,-3.199 2.051,-3.523 0.212,0.469 1.628,2.91 1.851,3.278 0.145,0.234 0.189,0.423 0.189,0.569 0,0.156 -0.044,0.278 -0.178,0.312 -0.1,0.033 -0.167,0.055 -0.167,0.111 0,0.045 0.067,0.067 0.178,0.067 0.29,0 0.647,-0.033 0.736,-0.033 0.067,0 0.869,0.033 1.082,0.033 0.078,0 0.144,-0.022 0.144,-0.067 C 4.481,5.418 4.425,5.385 4.337,5.385 4.214,5.385 4.002,5.34 3.824,5.229 3.601,5.095 3.478,4.961 3.232,4.66 2.865,4.214 1.305,1.595 1.104,1.115 0.936,0.714 0.936,0.368 0.936,0 l 0,-0.958 c 0,-0.179 0,-0.647 0.034,-1.115 0.022,-0.324 0.122,-0.569 0.457,-0.614 0.156,-0.022 0.401,-0.044 0.501,-0.044 0.068,0 0.09,-0.034 0.09,-0.067 0,-0.056 -0.056,-0.089 -0.178,-0.089 -0.614,0 -1.317,0.033 -1.373,0.033 -0.055,0 -0.758,-0.033 -1.092,-0.033 -0.122,0 -0.178,0.022 -0.178,0.089 0,0.033 0.022,0.067 0.089,0.067 0.1,0 0.234,0.022 0.335,0.044 0.222,0.045 0.323,0.29 0.345,0.614 C 0,-1.605 0,-1.137 0,-0.958 L 0,0 z"
                 id="path3191"
                 style="fill:#000000;fill-opacity:1;fill-rule:nonzero;stroke:none" />
            </g>
            <g
               transform="translate(552.6933,68.961304)"
               id="g3193"
               style="fill:#000000;fill-opacity:1">
              <path
                 d="M 0,0 C 1.003,0 3.077,0.58 3.077,3.824 3.077,6.5 1.449,7.938 -0.312,7.938 -2.174,7.938 -3.568,6.711 -3.568,4.27 -3.568,1.672 -2.007,0 0,0 m -0.234,8.317 c 2.508,0 4.381,-1.583 4.381,-4.181 0,-2.497 -1.761,-4.56 -4.448,-4.56 -3.055,0 -4.326,2.375 -4.326,4.382 0,1.806 1.316,4.359 4.393,4.359"
                 id="path3195"
                 style="fill:#000000;fill-opacity:1;fill-rule:nonzero;stroke:none" />
            </g>
            <g
               transform="translate(559.7637,73.889008)"
               id="g3197"
               style="fill:#000000;fill-opacity:1">
              <path
                 d="m 0,0 c 0,1.739 0,2.051 -0.022,2.408 -0.022,0.379 -0.112,0.557 -0.479,0.635 -0.09,0.023 -0.279,0.034 -0.38,0.034 -0.044,0 -0.089,0.022 -0.089,0.067 0,0.067 0.056,0.089 0.178,0.089 0.502,0 1.205,-0.034 1.261,-0.034 0.222,0 2.486,0 2.742,0.012 0.212,0.011 0.39,0.011 0.49,0.044 0.067,0.023 0.112,0.067 0.156,0.067 0.045,0 0.067,-0.044 0.067,-0.1 C 3.924,3.144 3.869,3.01 3.835,2.698 3.824,2.586 3.802,2.096 3.779,1.962 3.768,1.906 3.746,1.84 3.69,1.84 3.635,1.84 3.612,1.895 3.612,1.973 3.612,2.062 3.579,2.252 3.512,2.397 3.445,2.542 3.189,2.742 2.754,2.754 L 1.037,2.787 c -0.067,0 -0.1,-0.033 -0.1,-0.123 l 0,-3.077 c 0,-0.067 0.011,-0.1 0.078,-0.1 l 1.427,0.011 c 0.189,0 0.345,0 0.501,0.011 0.268,0.023 0.413,0.056 0.513,0.201 0.045,0.056 0.078,0.112 0.123,0.112 0.045,0 0.056,-0.034 0.056,-0.09 0,-0.067 -0.056,-0.256 -0.089,-0.624 -0.023,-0.223 -0.045,-0.669 -0.045,-0.747 0,-0.1 0,-0.212 -0.078,-0.212 -0.056,0 -0.078,0.045 -0.078,0.101 -0.012,0.111 -0.023,0.267 -0.067,0.401 -0.056,0.156 -0.234,0.357 -0.58,0.401 -0.279,0.034 -1.494,0.034 -1.683,0.034 -0.056,0 -0.078,-0.023 -0.078,-0.101 l 0,-0.947 c 0,-1.071 0,-1.951 0.055,-2.419 0.034,-0.324 0.101,-0.569 0.435,-0.614 0.156,-0.022 0.401,-0.044 0.502,-0.044 0.067,0 0.089,-0.034 0.089,-0.067 0,-0.056 -0.056,-0.089 -0.178,-0.089 -0.614,0 -1.316,0.033 -1.371,0.033 -0.056,0 -0.759,-0.033 -1.093,-0.033 -0.123,0 -0.179,0.022 -0.179,0.089 0,0.033 0.023,0.067 0.089,0.067 0.101,0 0.235,0.022 0.335,0.044 0.223,0.045 0.279,0.29 0.323,0.614 C 0,-3.913 0,-3.033 0,-1.962 L 0,0 z"
                 id="path3199"
                 style="fill:#000000;fill-opacity:1;fill-rule:nonzero;stroke:none" />
            </g>
            <path
               d="m 0,0 c 0,1.739 0,2.051 -0.023,2.408 -0.022,0.379 -0.111,0.557 -0.479,0.635 -0.089,0.023 -0.278,0.034 -0.379,0.034 -0.044,0 -0.089,0.022 -0.089,0.067 0,0.067 0.056,0.089 0.178,0.089 0.502,0 1.182,-0.034 1.282,-0.034 0.101,0 0.77,0.034 1.104,0.034 0.123,0 0.178,-0.022 0.178,-0.089 C 1.772,3.099 1.728,3.077 1.683,3.077 1.605,3.077 1.539,3.066 1.405,3.043 1.104,2.999 1.014,2.798 0.992,2.408 0.97,2.051 0.97,1.739 0.97,0 l 0,-1.561 c 0,-1.605 0.357,-2.296 0.836,-2.753 0.546,-0.513 1.048,-0.614 1.683,-0.614 0.68,0 1.349,0.323 1.751,0.803 0.513,0.635 0.646,1.583 0.646,2.731 l 0,1.394 c 0,1.739 0,2.051 -0.022,2.408 C 5.842,2.787 5.753,2.965 5.385,3.043 5.295,3.066 5.106,3.077 5.006,3.077 c -0.045,0 -0.09,0.022 -0.09,0.067 0,0.067 0.056,0.089 0.179,0.089 0.502,0 1.115,-0.034 1.182,-0.034 0.078,0 0.602,0.034 0.936,0.034 0.123,0 0.178,-0.022 0.178,-0.089 0,-0.045 -0.044,-0.067 -0.089,-0.067 -0.078,0 -0.145,0 -0.278,-0.034 C 6.723,2.988 6.634,2.798 6.611,2.408 6.589,2.051 6.589,1.739 6.589,0 l 0,-1.193 C 6.589,-2.397 6.455,-3.735 5.563,-4.527 4.76,-5.24 3.924,-5.351 3.267,-5.351 2.888,-5.351 1.762,-5.307 0.97,-4.56 0.423,-4.036 0,-3.255 0,-1.628 L 0,0 z"
               transform="translate(570.45531,73.889008)"
               id="path3203"
               style="fill:#000000;fill-opacity:1;fill-rule:nonzero;stroke:none" />
            <g
               transform="translate(583.2872,71.926605)"
               id="g3205"
               style="fill:#000000;fill-opacity:1">
              <path
                 d="m 0,0 c 0,-1.07 0,-1.951 0.056,-2.419 0.033,-0.323 0.1,-0.569 0.435,-0.613 0.156,-0.022 0.401,-0.045 0.501,-0.045 0.068,0 0.09,-0.033 0.09,-0.067 0,-0.055 -0.056,-0.089 -0.179,-0.089 -0.613,0 -1.316,0.034 -1.372,0.034 -0.056,0 -0.758,-0.034 -1.092,-0.034 -0.122,0 -0.178,0.022 -0.178,0.089 0,0.034 0.022,0.067 0.089,0.067 0.1,0 0.234,0.023 0.334,0.045 0.223,0.044 0.279,0.29 0.323,0.613 0.056,0.468 0.056,1.349 0.056,2.419 l 0,4.716 -1.65,-0.022 C -3.278,4.683 -3.545,4.605 -3.724,4.337 -3.846,4.148 -3.88,4.07 -3.914,3.991 -3.946,3.902 -3.98,3.88 -4.025,3.88 c -0.033,0 -0.056,0.033 -0.056,0.1 0,0.112 0.223,1.071 0.245,1.16 0.023,0.067 0.068,0.211 0.112,0.211 0.078,0 0.189,-0.111 0.491,-0.133 0.323,-0.034 0.747,-0.056 0.881,-0.056 l 4.18,0 c 0.357,0 0.613,0.034 0.792,0.056 0.167,0.033 0.267,0.055 0.312,0.055 0.055,0 0.055,-0.066 0.055,-0.133 0,-0.335 -0.033,-1.104 -0.033,-1.227 0,-0.1 -0.033,-0.145 -0.078,-0.145 -0.055,0 -0.078,0.034 -0.089,0.19 L 2.776,4.081 C 2.731,4.415 2.475,4.672 1.405,4.694 L 0,4.716 0,0 z"
                 id="path3207"
                 style="fill:#000000;fill-opacity:1;fill-rule:nonzero;stroke:none" />
            </g>
            <g
               transform="translate(591.43761,72.384003)"
               id="g3209"
               style="fill:#000000;fill-opacity:1">
              <path
                 d="m 0,0 c 0.056,0 0.056,0.033 0.044,0.078 l -1.059,3.01 c -0.056,0.167 -0.111,0.167 -0.167,0 L -2.163,0.078 C -2.185,0.022 -2.163,0 -2.129,0 L 0,0 z m -1.16,4.459 c 0.134,0.368 0.178,0.435 0.246,0.435 0.066,0 0.111,-0.056 0.245,-0.401 0.167,-0.424 1.918,-5.028 2.598,-6.723 0.401,-0.992 0.724,-1.17 0.958,-1.237 0.167,-0.056 0.335,-0.067 0.447,-0.067 0.066,0 0.111,-0.012 0.111,-0.067 0,-0.067 -0.101,-0.089 -0.223,-0.089 -0.168,0 -0.981,0 -1.75,0.022 -0.212,0.011 -0.335,0.011 -0.335,0.078 0,0.044 0.034,0.067 0.078,0.078 0.067,0.022 0.134,0.123 0.067,0.301 l -1.037,2.743 c -0.022,0.044 -0.045,0.066 -0.1,0.066 l -2.397,0 c -0.056,0 -0.089,-0.033 -0.111,-0.089 l -0.669,-1.973 c -0.1,-0.279 -0.156,-0.546 -0.156,-0.747 0,-0.223 0.234,-0.323 0.423,-0.323 l 0.112,0 c 0.078,0 0.111,-0.023 0.111,-0.067 0,-0.067 -0.067,-0.089 -0.167,-0.089 -0.267,0 -0.748,0.033 -0.87,0.033 -0.122,0 -0.736,-0.033 -1.26,-0.033 -0.145,0 -0.212,0.022 -0.212,0.089 0,0.044 0.045,0.067 0.101,0.067 0.078,0 0.234,0.011 0.323,0.022 0.513,0.067 0.736,0.49 0.937,1.048 l 2.53,6.923 z"
                 id="path3211"
                 style="fill:#000000;fill-opacity:1;fill-rule:nonzero;stroke:none" />
            </g>
            <g
               transform="translate(603.7681,71.926605)"
               id="g3213"
               style="fill:#000000;fill-opacity:1">
              <path
                 d="m 0,0 c 0,-1.07 0,-1.951 0.056,-2.419 0.033,-0.323 0.1,-0.569 0.434,-0.613 0.157,-0.022 0.402,-0.045 0.502,-0.045 0.067,0 0.09,-0.033 0.09,-0.067 0,-0.055 -0.056,-0.089 -0.179,-0.089 -0.613,0 -1.316,0.034 -1.372,0.034 -0.055,0 -0.758,-0.034 -1.092,-0.034 -0.123,0 -0.178,0.022 -0.178,0.089 0,0.034 0.022,0.067 0.089,0.067 0.1,0 0.234,0.023 0.334,0.045 0.223,0.044 0.279,0.29 0.323,0.613 0.056,0.468 0.056,1.349 0.056,2.419 l 0,1.171 c 0,0.044 -0.033,0.067 -0.067,0.067 l -4.727,0 c -0.033,0 -0.066,-0.012 -0.066,-0.067 l 0,-1.171 c 0,-1.07 0,-1.951 0.056,-2.419 0.033,-0.323 0.1,-0.569 0.434,-0.613 0.156,-0.022 0.401,-0.045 0.502,-0.045 0.067,0 0.089,-0.033 0.089,-0.067 0,-0.055 -0.056,-0.089 -0.179,-0.089 -0.612,0 -1.315,0.034 -1.371,0.034 -0.055,0 -0.758,-0.034 -1.093,-0.034 -0.122,0 -0.178,0.022 -0.178,0.089 0,0.034 0.022,0.067 0.09,0.067 0.1,0 0.234,0.023 0.334,0.045 0.223,0.044 0.279,0.29 0.323,0.613 0.056,0.468 0.056,1.349 0.056,2.419 l 0,1.962 c 0,1.74 0,2.052 -0.022,2.408 -0.022,0.379 -0.112,0.558 -0.48,0.636 -0.089,0.022 -0.279,0.033 -0.379,0.033 -0.045,0 -0.089,0.023 -0.089,0.067 0,0.067 0.056,0.09 0.178,0.089 0.502,0 1.205,-0.033 1.26,-0.033 0.056,0 0.759,0.033 1.093,0.034 0.122,0 0.178,-0.023 0.178,-0.09 0,-0.044 -0.044,-0.067 -0.089,-0.067 -0.078,0 -0.145,-0.011 -0.279,-0.033 C -5.663,4.95 -5.753,4.761 -5.775,4.37 -5.797,4.014 -5.797,3.702 -5.797,1.962 l 0,-0.234 c 0,-0.056 0.033,-0.067 0.066,-0.067 l 4.727,0 c 0.034,0 0.067,0.011 0.067,0.067 l 0,0.234 c 0,1.74 0,2.052 -0.022,2.408 -0.022,0.379 -0.112,0.558 -0.479,0.636 -0.09,0.022 -0.279,0.033 -0.379,0.033 -0.045,0 -0.089,0.023 -0.089,0.067 0,0.067 0.055,0.09 0.178,0.089 0.501,0 1.204,-0.033 1.259,-0.033 0.056,0 0.759,0.033 1.094,0.034 0.122,0 0.178,-0.023 0.178,-0.09 C 0.803,5.062 0.758,5.039 0.713,5.039 0.635,5.039 0.569,5.028 0.435,5.006 0.134,4.95 0.044,4.761 0.022,4.37 0,4.014 0,3.702 0,1.962 L 0,0 z"
                 id="path3215"
                 style="fill:#000000;fill-opacity:1;fill-rule:nonzero;stroke:none" />
            </g>
          </g>
        </g>
      </g>
    </g>
  </g>
</svg>
